{
	"nodes":[{
		"name":"humian",
		"translation":[0.0,
		0.0,
		0.0],
		"mesh":0,
		"rotation":[0.6644630432128906,
		0.2418447583913803,
		0.2418447583913803,
		-0.6644630432128906],
		"scale":[1.0,
		1.0,
		1.0]
	}],
	"asset":{
		"version":"2.0",
		"generator":"Created using the official Cinema 4D glTF Exporter 1.000x284978"
	},
	"accessors":[{
		"bufferView":0,
		"max":[127],
		"type":"SCALAR",
		"componentType":5123,
		"count":369,
		"byteOffset":0,
		"min":[0]
	},
	{
		"bufferView":1,
		"max":[2137.42919921875,
		171.81272888183595,
		0.971828281879425],
		"type":"VEC3",
		"componentType":5126,
		"count":128,
		"byteOffset":0,
		"min":[-2695.7705078125,
		-571.2997436523438,
		0.9717124104499817]
	},
	{
		"bufferView":1,
		"max":[0.0000010694050160964253,
		4.0345238971895017e-7,
		1.0],
		"type":"VEC3",
		"componentType":5126,
		"count":128,
		"byteOffset":12,
		"min":[-0.0000013042118780504098,
		-2.2012164890838904e-7,
		-1.0]
	},
	{
		"bufferView":1,
		"max":[2.7949628829956056,
		1.219416856765747],
		"type":"VEC2",
		"componentType":5126,
		"count":128,
		"byteOffset":24,
		"min":[-0.036671996116638187,
		-0.09505796432495117]
	}],
	"scenes":[{
		"nodes":[0]
	}],
	"meshes":[{
		"name":"humian",
		"primitives":[{
			"attributes":{
				"POSITION":1,
				"NORMAL":2,
				"TEXCOORD_0":3
			},
			"indices":0,
			"material":0
		}]
	}],
	"bufferViews":[{
		"buffer":0,
		"byteOffset":0,
		"byteLength":738,
		"target":34963
	},
	{
		"buffer":0,
		"byteOffset":740,
		"byteLength":4096,
		"target":34962,
		"byteStride":32
	}],
	"buffers":[{
		"uri":"data:application/octet-stream;base64,",
		"byteLength":4836
	}],
	"materials":[{
		"pbrMetallicRoughness":{
			"baseColorFactor":[1.0,
			1.0,
			1.0,
			1.0],
			"metallicFactor":1.0,
			"roughnessFactor":0.0
		},
		"emissiveFactor":[0.0,
		0.0,
		0.0],
		"alphaMode":"OPAQUE",
		"doubleSided":false,
		"name":"材质.1"
	}]
}