{
	"asset":{
		"version":"2.0",
		"generator":"Created using the official Cinema 4D glTF Exporter 1.000x284978"
	},
	"scenes":[{
		"nodes":[0]
	}],
	"nodes":[{
		"rotation":[0.6644630432128906,
		0.2418447583913803,
		0.2418447583913803,
		-0.6644630432128906],
		"name":"humian",
		"translation":[274.3583068847656,
		0.971828281879425,
		667.9911499023438],
		"scale":[1.0,
		1.0,
		1.0],
		"mesh":0
	}],
	"meshes":[{
		"name":"humian",
		"primitives":[{
			"attributes":{
				"POSITION":1,
				"NORMAL":2,
				"TEXCOORD_0":3
			},
			"indices":0,
			"material":0
		}]
	}],
	"accessors":[{
		"min":[0],
		"bufferView":0,
		"type":"SCALAR",
		"componentType":5123,
		"count":369,
		"byteOffset":0,
		"max":[128]
	},
	{
		"min":[-2824.448486328125,
		-844.77294921875,
		-0.00011587638437049463],
		"bufferView":1,
		"type":"VEC3",
		"componentType":5126,
		"count":129,
		"byteOffset":0,
		"max":[2008.7510986328126,
		-101.66048431396485,
		-1.8831094181822467e-14]
	},
	{
		"min":[-0.0000013042675846008934,
		-2.2013104228335579e-7,
		-1.0],
		"bufferView":1,
		"type":"VEC3",
		"componentType":5126,
		"count":129,
		"byteOffset":12,
		"max":[0.0000010694498087104876,
		4.034694711663178e-7,
		1.0]
	},
	{
		"min":[-0.036671996116638187,
		-0.09505796432495117],
		"bufferView":1,
		"type":"VEC2",
		"componentType":5126,
		"count":129,
		"byteOffset":24,
		"max":[2.7949628829956056,
		1.219416856765747]
	}],
	"bufferViews":[{
		"buffer":0,
		"byteOffset":0,
		"byteLength":738,
		"target":34963
	},
	{
		"buffer":0,
		"byteOffset":740,
		"byteLength":4128,
		"target":34962,
		"byteStride":32
	}],
	"buffers":[{
		"uri":"data:application/octet-stream;base64,",
		"byteLength":4868
	}],
	"materials":[{
		"name":"材质.1",
		"pbrMetallicRoughness":{
			"baseColorFactor":[1.0,
			1.0,
			1.0,
			1.0],
			"metallicFactor":1.0,
			"roughnessFactor":0.0
		},
		"emissiveFactor":[0.0,
		0.0,
		0.0],
		"alphaMode":"OPAQUE",
		"doubleSided":false
	}]
}